<svg width="10" height="14" viewBox="0 0 10 14" fill="none" xmlns="http://www.w3.org/2000/svg">
<path d="M6.23333 8.75C8.45 8.75 10 7.1242 10 4.7871C10 2.45 8.45 0.875 6.23333 0.875H1.97917C1.80659 0.875 1.66667 1.02192 1.66667 1.20312V6.85322H0.3125C0.139922 6.85322 0 7.00014 0 7.18134V8.42188C0 8.60308 0.139922 8.75 0.3125 8.75H1.66667V9.625H0.3125C0.139922 9.625 0 9.77192 0 9.95312V11.0469C0 11.2281 0.139922 11.375 0.3125 11.375H1.66667V12.7969C1.66667 12.9781 1.80659 13.125 1.97917 13.125H3.50417C3.67674 13.125 3.81667 12.9781 3.81667 12.7969V11.375H8.02083C8.19341 11.375 8.33333 11.2281 8.33333 11.0469V9.95312C8.33333 9.77192 8.19341 9.625 8.02083 9.625H3.81667V8.75H6.23333ZM3.81667 2.75483H5.86667C7.08333 2.75483 7.81667 3.5508 7.81667 4.7871C7.81667 6.04032 7.08333 6.85322 5.83333 6.85322H3.81667V2.75483Z" fill="#037E8C"/>
</svg>
