<svg width="88" height="72" viewBox="0 0 88 72" fill="none" xmlns="http://www.w3.org/2000/svg">
<path d="M8.74999 36C4.44166 36 0.916656 32.475 0.916656 28.1667V8.58333C0.916656 4.275 4.44166 0.75 8.74999 0.75H40.0833C44.3917 0.75 47.9167 4.275 47.9167 8.58333V28.1667C47.9167 32.475 44.3917 36 40.0833 36H32.25V47.75L20.5 36H8.74999ZM79.25 59.5C83.5583 59.5 87.0833 55.975 87.0833 51.6667V32.0833C87.0833 27.775 83.5583 24.25 79.25 24.25H55.75V28.1667C55.75 36.7833 48.7 43.8333 40.0833 43.8333V51.6667C40.0833 55.975 43.6083 59.5 47.9167 59.5H55.75V71.25L67.5 59.5H79.25Z" fill="#121214"/>
</svg>
